<?xml version="1.0" standalone="no"?>
<!DOCTYPE svg PUBLIC "-//W3C//DTD SVG 20010904//EN"
 "http://www.w3.org/TR/2001/REC-SVG-20010904/DTD/svg10.dtd">
<svg version="1.0" xmlns="http://www.w3.org/2000/svg"
 width="500.000000pt" height="500.000000pt" viewBox="0 0 500.000000 500.000000"
 preserveAspectRatio="xMidYMid meet">

<g transform="translate(0.000000,500.000000) scale(0.100000,-0.100000)"
fill="#000000" stroke="none">
<path d="M2364 3721 c-45 -16 -91 -38 -103 -50 -11 -11 -27 -21 -34 -21 -8 0
-22 -9 -32 -20 -10 -12 -24 -19 -30 -16 -6 2 -30 1 -53 -4 -39 -7 -42 -6 -56
24 -8 16 -13 33 -11 37 3 3 -4 14 -15 24 -28 25 -50 12 -50 -30 0 -34 10 -42
45 -35 6 1 6 -2 2 -7 -17 -16 -52 -8 -57 12 -3 11 -18 26 -32 33 -28 13 -29
36 -2 46 19 7 18 -4 -3 -20 -16 -12 -16 -13 8 -14 21 0 28 6 32 26 3 18 1 24
-9 20 -8 -3 -14 -1 -14 5 0 6 -7 3 -16 -5 -8 -9 -20 -16 -25 -16 -5 0 -9 -7
-9 -16 0 -8 -4 -13 -9 -10 -14 9 -51 -120 -61 -217 -21 -200 -7 -581 26 -679
17 -52 86 -122 148 -152 54 -26 203 -56 278 -56 l67 0 3 -47 c3 -43 6 -48 28
-51 79 -8 89 -12 92 -39 2 -20 11 -29 37 -38 51 -17 51 -35 2 -35 -52 0 -52
-17 -1 -38 46 -20 47 -38 1 -35 -40 1 -37 -17 7 -36 41 -19 35 -36 -12 -35
-28 1 -34 -2 -26 -11 6 -7 22 -16 35 -19 14 -4 25 -10 25 -14 0 -15 -118 -35
-165 -28 -35 6 -46 4 -51 -7 -3 -8 -15 -18 -27 -21 -41 -12 -12 -22 233 -86
188 -48 239 -58 363 -69 146 -14 247 -6 247 19 0 38 -29 49 -178 73 -63 10
-73 14 -78 34 -4 13 -19 30 -35 39 -31 16 -31 34 1 34 10 0 22 5 25 10 3 6 -5
10 -19 10 -31 0 -44 18 -19 26 44 15 48 18 21 22 -33 4 -37 19 -6 24 34 5 32
25 -2 32 -38 7 -35 30 4 34 33 4 32 35 -2 40 -29 4 -29 30 1 34 17 2 22 10 22
32 1 28 2 29 59 32 75 4 94 11 101 35 6 18 17 19 163 19 262 0 401 32 478 111
32 33 36 41 24 49 -8 5 -26 10 -40 10 -62 0 -331 60 -375 84 -11 6 -22 11 -25
11 -3 0 -24 13 -47 28 -24 15 -49 27 -58 27 -8 0 -15 6 -15 13 -1 6 -25 32
-55 56 -30 24 -55 48 -55 55 1 6 7 40 15 76 27 125 1 346 -51 437 -37 64 -157
181 -220 215 -121 65 -274 76 -410 29z m-349 -69 c-12 -12 -23 21 -12 33 10
10 13 9 15 -7 2 -11 1 -23 -3 -26z m638 -57 c109 -33 192 -124 223 -245 13
-50 15 -92 11 -180 -5 -120 -20 -180 -42 -180 -22 0 -27 18 -8 24 10 3 1 4
-21 2 -33 -2 -36 -1 -20 11 16 12 16 13 -8 13 -33 0 -58 9 -58 22 0 5 4 7 9 3
5 -3 12 -1 16 5 4 6 -12 10 -42 11 -26 0 -42 3 -35 6 19 7 14 23 -8 23 -10 0
-23 6 -27 13 -4 7 -19 18 -33 25 -23 12 -22 12 15 8 l40 -5 -27 15 c-15 8 -33
24 -39 36 -12 22 -12 22 -20 3 -4 -11 -8 -14 -8 -7 -1 8 -9 10 -26 6 -16 -4
-43 3 -80 21 -68 34 -77 46 -28 38 21 -3 35 -3 31 1 -5 7 -27 13 -50 15 -5 1
-8 5 -8 11 0 5 7 6 17 3 11 -5 14 -3 9 6 -5 7 -17 11 -27 8 -12 -3 -19 0 -19
9 0 8 -7 14 -15 14 -14 0 -19 11 -16 38 1 6 -5 12 -14 12 -8 0 -15 7 -15 15 0
8 -12 22 -27 32 -44 28 -45 36 -5 76 88 92 233 129 355 92z m-273 -335 c0 -5
-2 -10 -4 -10 -3 0 -8 5 -11 10 -3 6 -1 10 4 10 6 0 11 -4 11 -10z"/>
<path d="M2368 3353 c7 -3 16 -2 19 1 4 3 -2 6 -13 5 -11 0 -14 -3 -6 -6z"/>
<path d="M2498 3223 c6 -2 18 -2 25 0 6 3 1 5 -13 5 -14 0 -19 -2 -12 -5z"/>
<path d="M2655 3130 c3 -5 11 -10 16 -10 6 0 7 5 4 10 -3 6 -11 10 -16 10 -6
0 -7 -4 -4 -10z"/>
<path d="M2717 3109 c7 -7 15 -10 18 -7 3 3 -2 9 -12 12 -14 6 -15 5 -6 -5z"/>
<path d="M2040 3711 c0 -5 5 -13 10 -16 6 -3 10 -2 10 4 0 5 -4 13 -10 16 -5
3 -10 2 -10 -4z"/>
<path d="M2064 3669 c-3 -6 3 -21 15 -32 20 -20 22 -21 38 -4 16 16 16 17 1
12 -13 -5 -15 -2 -11 14 4 16 1 21 -15 21 -12 0 -24 -5 -28 -11z"/>
<path d="M2140 3660 c0 -5 5 -10 10 -10 6 0 10 5 10 10 0 6 -4 10 -10 10 -5 0
-10 -4 -10 -10z"/>
<path d="M3331 3603 c-31 -26 -40 -79 -41 -240 l0 -141 30 -30 c35 -35 85 -47
137 -32 79 21 86 39 86 215 -1 160 -13 204 -62 229 -41 22 -123 21 -150 -1z"/>
<path d="M3646 3558 c-13 -18 -16 -54 -16 -184 0 -148 2 -163 21 -188 22 -28
75 -36 97 -14 8 8 12 64 12 188 0 201 -6 220 -65 220 -24 0 -39 -7 -49 -22z"/>
<path d="M4710 3522 c-22 -10 -42 -32 -54 -56 l-19 -39 31 -131 c17 -72 37
-171 44 -221 17 -116 16 -597 -1 -760 -22 -218 -31 -319 -38 -417 l-6 -97 30
-30 c54 -53 143 -48 174 11 19 35 44 603 44 1008 0 518 -24 679 -107 730 -40
24 -53 25 -98 2z"/>
<path d="M4360 3297 c-22 -8 -40 -23 -49 -41 -15 -31 -14 -40 26 -216 13 -57
17 -126 17 -290 1 -221 -9 -316 -55 -522 -26 -121 -25 -144 11 -179 25 -25 36
-30 71 -27 58 4 73 29 103 178 42 207 56 347 56 548 0 202 -16 344 -51 454
-30 94 -62 118 -129 95z"/>
<path d="M4082 3205 c-17 -8 -41 -29 -51 -47 -19 -30 -20 -44 -14 -203 6 -193
-4 -315 -44 -512 -25 -126 -26 -132 -9 -158 45 -69 101 -52 136 42 33 86 77
266 95 387 18 122 21 367 5 425 -16 62 -64 88 -118 66z"/>
<path d="M1840 2012 c-163 -61 -253 -173 -266 -333 -12 -144 34 -363 106 -497
38 -72 123 -178 148 -187 28 -8 33 -93 25 -397 l-6 -256 49 -50 c41 -41 58
-51 97 -57 27 -4 66 -5 87 -1 32 5 41 3 50 -13 14 -27 13 -28 -14 -35 -30 -7
-41 -43 -15 -51 10 -4 16 -12 12 -21 -3 -9 2 -14 16 -14 14 0 21 -6 21 -20 0
-11 5 -20 12 -20 9 0 9 -3 0 -12 -7 -7 -12 -20 -12 -30 0 -17 14 -18 247 -16
266 3 303 11 199 44 -30 10 -53 21 -51 24 3 4 28 10 56 12 78 8 100 50 58 107
-12 16 -18 34 -15 40 4 6 40 11 85 11 56 0 82 4 90 14 17 20 10 70 -9 73 -100
13 -125 33 -40 33 43 0 50 3 50 20 0 18 7 20 78 20 78 0 122 15 109 37 -4 6
-37 14 -74 19 l-68 8 45 7 c25 4 84 8 133 8 l87 1 0 33 c0 30 4 34 48 50 51
17 142 89 142 112 0 7 -33 24 -74 39 -41 15 -82 36 -91 46 -10 11 -21 17 -26
15 -4 -3 -10 -1 -14 5 -3 5 -15 10 -26 10 -10 0 -19 5 -19 10 0 6 -11 15 -25
20 -14 5 -25 14 -25 19 0 5 -10 13 -22 16 -13 4 -35 21 -50 39 -16 17 -28 25
-28 18 0 -10 -4 -10 -19 0 -16 10 -18 15 -8 27 7 8 8 12 2 9 -13 -7 -46 5 -46
17 0 6 -7 17 -15 27 -9 9 -16 22 -18 30 -3 21 -17 39 -26 33 -5 -3 -11 -1 -15
5 -3 5 -18 10 -33 10 -18 0 -23 3 -14 9 10 6 4 16 -22 39 -19 16 -32 32 -29
35 3 3 -5 3 -18 0 -14 -4 -20 -2 -15 5 3 6 2 14 -4 17 -6 4 -32 -13 -58 -37
-52 -49 -142 -105 -223 -142 -89 -40 -108 -40 -39 0 98 55 237 153 264 185 40
47 76 132 87 203 13 84 0 172 -43 273 -25 61 -42 84 -107 145 -115 107 -246
178 -396 214 -82 19 -228 17 -285 -4z m170 -381 c0 -5 -7 -27 -15 -50 -8 -23
-22 -84 -31 -136 -9 -52 -20 -99 -24 -105 -15 -24 -200 91 -200 124 0 27 48
99 81 120 55 37 189 70 189 47z m195 -39 c50 -35 82 -91 91 -161 7 -57 -10
-161 -27 -161 -6 0 -24 8 -42 17 -18 9 -66 22 -107 28 l-75 11 1 80 c1 77 17
171 36 207 13 25 69 15 123 -21z m14 -629 c17 -123 51 -492 51 -558 0 -75 -8
-89 -46 -81 -62 14 -81 43 -98 146 -21 128 -43 322 -51 448 l-7 102 49 0 c26
0 55 5 63 10 25 16 27 13 39 -67z m-189 -241 c36 -360 36 -365 13 -360 -13 2
-21 20 -30 58 -6 30 -16 71 -22 90 -6 19 -11 62 -11 95 -1 33 -5 80 -11 105
-11 51 -13 65 -24 172 -7 74 -6 78 20 112 15 20 29 35 31 33 2 -2 17 -139 34
-305z"/>
<path d="M3340 1882 c0 -7 8 -27 17 -45 17 -31 18 -31 21 -8 2 14 -4 32 -17
45 -13 12 -21 15 -21 8z"/>
<path d="M3408 1794 c-14 -15 -15 -21 -2 -56 19 -55 54 -241 54 -290 0 -60 9
-42 19 40 12 91 -2 209 -31 273 -21 47 -24 49 -40 33z"/>
</g>
</svg>
