<svg xmlns="http://www.w3.org/2000/svg" viewBox="0 0 32 32" id="microphone"><path fill="#311b92" d="M22 5.63a5.15 5.15 0 0 0-5.09-4.38h-1.83A5.15 5.15 0 0 0 10 5.63a4.15 4.15 0 0 0-.07.79v11.33a5.17 5.17 0 0 0 5.16 5.17h1.84a5.17 5.17 0 0 0 5.16-5.17V6.42a4.15 4.15 0 0 0-.09-.79zm-3.58 25.12h-4.84a1 1 0 1 1 0-2h4.84a1 1 0 0 1 0 2z"></path><path fill="#311b92" d="M16 27.67c-5.8 0-10.52-5-10.52-11.18v-4.86a1 1 0 1 1 2 0v4.86c0 5.06 3.82 9.18 8.52 9.18s8.52-4.12 8.52-9.18v-4.86a1 1 0 1 1 2 0v4.86c0 6.16-4.72 11.18-10.52 11.18Z"></path><path fill="#7c4dff" d="M14.56 6.63a1 1 0 0 1-1 1H9.92V6.42a4.15 4.15 0 0 1 .08-.79h3.57a1 1 0 0 1 .99 1zm0 4.31a1 1 0 0 1-1 1H9.92v-2h3.64a1 1 0 0 1 1 1zm0 5.06a1 1 0 0 1-1 1H9.92v-2h3.64a1 1 0 0 1 1 1zm7.52-9.58v1.21h-3.64a1 1 0 0 1 0-2H22a4.15 4.15 0 0 1 .08.79zm0 3.52v2h-3.64a1 1 0 0 1 0-2zm0 5.06v2h-3.64a1 1 0 1 1 0-2z"></path></svg>